<svg id="Capa_1" enable-background="new 0 0 512 512" height="512" viewBox="0 0 512 512" width="512" xmlns="http://www.w3.org/2000/svg"><path d="m496 270h-40c-8.284 0-15-6.716-15-15s6.716-15 15-15h40c8.284 0 15 6.716 15 15s-6.716 15-15 15z" fill="#ffdc1e"/><path d="m56 270h-40c-8.284 0-15-6.716-15-15s6.716-15 15-15h40c8.284 0 15 6.716 15 15s-6.716 15-15 15z" fill="#fff064"/><path d="m429.219 170.003c-5.184 0-10.226-2.69-13.004-7.503-4.143-7.174-1.685-16.349 5.49-20.49l34.641-20c7.174-4.144 16.348-1.685 20.49 5.49 4.143 7.174 1.685 16.349-5.49 20.49l-34.641 20c-2.362 1.364-4.941 2.013-7.486 2.013z" fill="#ffdc1e"/><path d="m355.986 96.798c-2.545 0-5.124-.648-7.486-2.013-7.175-4.142-9.633-13.316-5.49-20.49l20-34.641c4.142-7.176 13.315-9.634 20.49-5.49 7.175 4.142 9.633 13.316 5.49 20.49l-20 34.641c-2.778 4.812-7.82 7.503-13.004 7.503z" fill="#ffdc1e"/><path d="m256 70c-8.284 0-15-6.716-15-15v-40c0-8.284 6.716-15 15-15s15 6.716 15 15v40c0 8.284-6.716 15-15 15z" fill="#fff064"/><path d="m256 0c8.284 0 15 6.716 15 15v40c0 8.284-6.716 15-15 15z" fill="#ffdc1e"/><path d="m156.014 96.798c-5.184 0-10.226-2.69-13.004-7.503l-20-34.641c-4.143-7.174-1.685-16.349 5.49-20.49 7.175-4.143 16.348-1.685 20.49 5.49l20 34.641c4.143 7.174 1.685 16.349-5.49 20.49-2.362 1.365-4.941 2.013-7.486 2.013z" fill="#fff064"/><path d="m82.781 170.003c-2.545 0-5.124-.648-7.486-2.013l-34.641-20c-7.175-4.142-9.633-13.316-5.49-20.49 4.142-7.176 13.316-9.635 20.49-5.49l34.641 20c7.175 4.142 9.633 13.316 5.49 20.49-2.778 4.813-7.82 7.503-13.004 7.503z" fill="#fff064"/><path d="m356 512h-200c-8.284 0-15-6.716-15-15v-53.299c-24.891-15.981-40-43.329-40-73.423v-155.278c0-4.349 1.887-8.482 5.172-11.332 3.286-2.85 7.65-4.131 11.949-3.518l280 40c7.39 1.056 12.879 7.385 12.879 14.85v115.278c0 30.094-15.109 57.441-40 73.423v53.299c0 8.284-6.716 15-15 15z" fill="#ffd0af"/><path d="m398.121 240.15-162.121-23.16v295.01h120c8.284 0 15-6.716 15-15v-53.299c24.891-15.981 40-43.329 40-73.423v-115.278c0-7.465-5.489-13.794-12.879-14.85z" fill="#f5aa73"/><path d="m269.75 280c-18.64 0-33.75-15.11-33.75-33.75v-112.5c0-18.64 15.11-33.75 33.75-33.75 18.64 0 33.75 15.11 33.75 33.75v112.5c0 18.64-15.11 33.75-33.75 33.75z" fill="#f5aa73"/><path d="m202.25 290c-18.64 0-33.75-15.11-33.75-33.75v-102.5c0-18.64 15.11-33.75 33.75-33.75 18.64 0 33.75 15.11 33.75 33.75v102.5c0 18.64-15.11 33.75-33.75 33.75z" fill="#fabe8c"/><path d="m337.25 280c-18.64 0-33.75-15.11-33.75-33.75v-92.5c0-18.64 15.11-33.75 33.75-33.75 18.64 0 33.75 15.11 33.75 33.75v92.5c0 18.64-15.11 33.75-33.75 33.75z" fill="#f5aa73"/><g fill="#fabe8c"><path d="m134.75 280c-18.64 0-33.75-15.11-33.75-33.75v-72.5c0-18.64 15.11-33.75 33.75-33.75 18.64 0 33.75 15.11 33.75 33.75v72.5c0 18.64-15.11 33.75-33.75 33.75z"/><path d="m236 395.526v116.474h120c8.284 0 15-6.716 15-15v-53.299c24.891-15.981 40-43.329 40-73.423v-114.278c0-18.778-15.222-34-34-34h-122c-18.778 0-34 15.222-34 34 0 18.778 15.222 34 34 34h32.901c-32.729 25.224-51.901 64.206-51.901 105.526z"/></g></svg>